<svg width="64" height="64" viewBox="0 0 64 64" fill="none" xmlns="http://www.w3.org/2000/svg">
<rect width="64" height="64" rx="12" fill="#0533FF"/>
<rect width="64" height="64" rx="12" fill="#0533FF"/>
<path fill-rule="evenodd" clip-rule="evenodd" d="M25.0098 16.1895C25.35 13.9726 28.286 13.2195 29.7114 14.9618L29.848 15.145L29.8532 15.1517L29.8807 15.1921L39.4997 29.7297L39.504 29.7364L39.5229 29.765L39.5272 29.7726L39.6234 29.9372C39.8324 30.3285 39.9364 30.7669 39.9233 31.2103V31.2178L39.9216 31.2523V31.2607L39.0657 48.5275C38.9439 50.9781 35.7724 51.8658 34.303 49.998L34.1664 49.8081L24.5474 35.2705C24.2466 34.8159 24.0987 34.2804 24.1255 33.7395L24.9814 16.4726V16.4642L24.984 16.4256L24.9849 16.4163L25.0098 16.1895ZM35.4357 33.805C35.36 33.8339 35.2823 33.8606 35.2019 33.8815L35.2002 33.8823L29.9271 35.2428L29.9263 35.2419C29.8631 35.2583 29.7996 35.2707 29.7363 35.2814L34.9708 43.1935L35.4357 33.805ZM35.6187 32.6589C35.455 32.8424 35.2353 32.982 34.9759 33.0496C35.2786 32.9707 35.5274 32.7943 35.6961 32.564L35.6187 32.6589ZM35.8198 32.3547C35.8026 32.3914 35.7838 32.4274 35.7631 32.4623L35.8198 32.3547C35.837 32.3181 35.8527 32.2803 35.8662 32.2421L35.8198 32.3547ZM36.3604 31.5623C36.3717 31.6213 36.3811 31.6807 36.3879 31.7405C36.3741 31.6189 36.3507 31.4987 36.3183 31.3808L36.3604 31.5623ZM35.8516 31.3825C35.8672 31.4223 35.8813 31.4632 35.8929 31.5052L35.8525 31.3817C35.8369 31.3419 35.8193 31.3032 35.8001 31.2657L35.8516 31.3825ZM28.6097 31.2035C28.6729 31.1808 28.7375 31.1595 28.8039 31.1422H28.8065L34.0779 29.7818L34.2944 29.7364C34.303 29.7351 34.3117 29.7343 34.3202 29.7331L29.0755 21.8059L28.6097 31.2035ZM36.008 30.6994C36.0429 30.7521 36.0756 30.8058 36.106 30.8607L36.008 30.6994ZM28.4481 20.5497C28.3763 20.6091 28.3179 20.6855 28.2806 20.7765L28.3252 20.69C28.3759 20.6091 28.445 20.5438 28.5246 20.4959L28.4481 20.5497ZM28.6956 20.4236C28.6657 20.4314 28.6365 20.442 28.608 20.4539L28.6956 20.4236C28.7255 20.4159 28.7569 20.4104 28.7876 20.4068L28.6956 20.4236ZM28.8813 20.4026C28.944 20.4044 29.0066 20.4156 29.0669 20.4362L28.9749 20.4119C28.9439 20.4064 28.9126 20.4035 28.8813 20.4026ZM26.2868 15.4576C26.2706 15.4756 26.255 15.4943 26.2395 15.513C26.2833 15.4599 26.3301 15.4097 26.3796 15.3626L26.2868 15.4576ZM26.6941 15.124C26.6566 15.1463 26.62 15.1704 26.5841 15.1954L26.6941 15.124C26.7318 15.1017 26.771 15.0806 26.8102 15.061L26.6941 15.124ZM27.4392 14.8736C27.3954 14.8787 27.3519 14.8856 27.3086 14.8938L27.4392 14.8736C27.4829 14.8685 27.5276 14.8647 27.5716 14.8627L27.4392 14.8736ZM39.0433 31.1851V31.0741C39.0432 31.0699 39.0427 31.0657 39.0425 31.0615C39.0443 31.1025 39.0446 31.1439 39.0433 31.1851Z" fill="white"/>
<path fill-rule="evenodd" clip-rule="evenodd" d="M51.2138 28.1668C52.3078 28.057 53.3371 28.7678 53.5667 29.8465L53.7017 30.5414C54.2726 33.7909 54.0214 37.1273 52.9712 40.2626L52.734 40.9314C51.4865 44.2581 49.3694 47.2071 46.5972 49.4913L46.0343 49.9392C45.151 50.6172 43.8941 50.5236 43.1262 49.7527L42.9793 49.5888C42.2318 48.6676 42.3952 47.3313 43.3402 46.6058L43.7862 46.2512C45.982 44.442 47.6573 42.1069 48.6443 39.4752L48.8325 38.9459C49.6631 36.4659 49.8604 33.8274 49.4091 31.2582L49.3025 30.7086C49.0574 29.5565 49.8205 28.4358 50.9946 28.1996L51.2138 28.1668ZM45.4904 49.2619C45.3514 49.3686 45.1971 49.4427 45.0366 49.4863C45.1566 49.4537 45.2737 49.4052 45.3829 49.3376L45.4904 49.2619ZM51.9082 40.6348C51.872 40.7312 51.8324 40.8265 51.7947 40.9222L51.9082 40.6348Z" fill="white"/>
<path fill-rule="evenodd" clip-rule="evenodd" d="M19.1987 14.3291C20.1625 13.8108 21.3932 14.0757 22.0363 14.9778L22.1549 15.1627C22.655 16.0428 22.4477 17.1494 21.6642 17.8011L21.4872 17.933C19.6182 19.1931 18.0358 20.8131 16.8389 22.6915L16.8397 22.6924L16.7804 22.7831L16.7813 22.784C15.5965 24.6716 14.8241 26.776 14.5117 28.965L14.5108 28.9642L14.4971 29.0718C14.1952 31.2965 14.3739 33.5582 15.023 35.7116L15.0548 35.815L15.1803 36.204C15.8331 38.1383 16.8578 39.9364 18.201 41.502L18.274 41.5868L18.2792 41.5927L18.3007 41.6179L18.3084 41.6263L18.4364 41.7994C18.9891 42.6253 18.8828 43.7219 18.176 44.432L18.0153 44.5782C17.1127 45.3203 15.7706 45.2246 14.9878 44.3698L14.98 44.3623L14.9586 44.3371L14.9534 44.332L14.9491 44.3262L14.8649 44.2287L14.8632 44.227C13.1654 42.2488 11.8696 39.9756 11.0441 37.53L10.8851 37.0384L10.8843 37.0359L10.8473 36.9141L10.8465 36.9115C10.0249 34.1878 9.7981 31.3264 10.1804 28.5121V28.5096L10.1985 28.3827V28.3802L10.2793 27.8626C10.7174 25.282 11.6638 22.8056 13.0671 20.5698L13.0679 20.5673L13.1367 20.4589L13.1384 20.4564L13.428 20.0153C14.9023 17.8281 16.7966 15.9354 19.0096 14.4434L19.1987 14.3291ZM15.7715 39.5979C15.8171 39.6756 15.8647 39.752 15.9116 39.829C15.7901 39.6294 15.6714 39.4282 15.5584 39.224L15.7715 39.5979ZM14.6406 37.2813C14.6865 37.3973 14.7347 37.5125 14.7832 37.6275C14.679 37.3806 14.5799 37.1314 14.4876 36.8796L14.6406 37.2813ZM13.8757 27.5584C13.8531 27.6595 13.8329 27.7611 13.8121 27.8626C13.8621 27.6188 13.9163 27.376 13.9771 27.1349L13.8757 27.5584ZM15.1768 23.8654C14.7271 24.7816 14.3633 25.7351 14.0889 26.7139L14.2126 26.2963C14.5125 25.3251 14.9013 24.3809 15.3753 23.4755L15.1768 23.8654ZM13.3025 21.8874C12.8938 22.621 12.5347 23.3783 12.2266 24.1545L12.4174 23.6915C12.6802 23.0769 12.9756 22.4742 13.3025 21.8874ZM16.031 22.3336C15.875 22.5822 15.7257 22.8344 15.5833 23.0898L15.8025 22.71C15.877 22.584 15.9531 22.4578 16.031 22.3336ZM16.4771 21.6622C16.3449 21.8521 16.2156 22.0441 16.0912 22.2395L16.3172 21.8941C16.3696 21.8162 16.4234 21.7392 16.4771 21.6622ZM20.2635 17.7398C20.2123 17.7782 20.162 17.8176 20.1114 17.8566C20.2791 17.7277 20.4491 17.6014 20.6218 17.4785L20.2635 17.7398ZM20.9879 17.2247L21.0867 17.1507L21.0893 17.1474C21.0569 17.1742 21.0236 17.2006 20.9879 17.2247ZM21.4855 15.808C21.4601 15.7299 21.4269 15.6533 21.3849 15.5794L21.4417 15.6929C21.4583 15.7308 21.4729 15.7692 21.4855 15.808ZM19.7392 15.0274C19.6996 15.0439 19.6608 15.063 19.6224 15.0837L19.7392 15.0274C19.7789 15.0109 19.819 14.9969 19.8596 14.9845L19.7392 15.0274Z" fill="white"/>
</svg>
