<svg width="541" height="134" viewBox="0 0 541 134" fill="none" xmlns="http://www.w3.org/2000/svg">
<path d="M54.121 7.39859C54.7896 -0.11459 64.5815 -2.72879 68.9306 3.44453L69.1371 3.74996L103.872 57.5424L104.039 57.8134C104.794 59.0886 105.186 60.5448 105.172 62.0252L105.163 62.3426L102.074 126.234C101.691 134.151 91.3374 136.916 87.0331 130.25L52.2975 76.4573C51.3761 75.0304 50.9247 73.3519 51.0067 71.6571L54.0961 7.76583L54.121 7.39859ZM92.0174 68.3977C91.2427 69.4763 90.1293 70.3224 88.779 70.7571L88.4622 70.8509L70.1516 75.7397C69.1352 76.0111 68.1106 76.0212 67.1479 75.8151L89.9518 111.129L92.0174 68.3977ZM64.1896 64.8138C64.9199 64.1558 65.8128 63.6554 66.8291 63.3841L85.1396 58.4952L85.4608 58.4179C86.8481 58.1216 88.2372 58.2991 89.4492 58.847L66.2181 22.8697L64.1896 64.8138Z" fill="#0533FF"/>
<path d="M32.1843 1.20619C35.0693 -0.578345 38.8831 0.187108 40.8398 2.99908C42.7965 5.81126 42.1782 9.63881 39.4889 11.705L39.2224 11.8988C32.4173 16.6002 26.6404 22.6243 22.2377 29.6053L21.816 30.284C17.5024 37.3263 14.6666 45.1633 13.4758 53.3215L13.3656 54.112C12.2461 62.5545 12.9101 71.1375 15.3154 79.3089L15.546 80.0725C17.9781 87.9523 21.9863 95.2631 27.3325 101.562C29.6215 104.26 29.2829 108.295 26.5761 110.576C23.8694 112.857 19.82 112.519 17.531 109.822C11.0655 102.204 6.21746 93.3628 3.2761 83.8332L2.99727 82.9083C0.0883889 73.026 -0.714983 62.647 0.638826 52.4369L0.772263 51.4806C2.2124 41.6141 5.64239 32.1365 10.859 23.62L11.3688 22.7993C16.693 14.357 23.679 7.07266 31.9082 1.38746L32.1843 1.20619Z" fill="#0533FF"/>
<path d="M146.879 52.5133C150.351 51.7978 153.747 54.0221 154.465 57.481C157.164 70.4769 156.291 83.9503 151.95 96.4848L151.519 97.6949C146.807 110.57 138.592 121.888 127.791 130.383C125.009 132.572 120.972 132.098 118.776 129.326C116.579 126.553 117.054 122.531 119.837 120.343C128.77 113.316 135.563 103.957 139.458 93.3126L139.814 92.3127C143.403 81.9502 144.124 70.8131 141.894 60.0721C141.176 56.6132 143.408 53.2289 146.879 52.5133Z" fill="#0533FF"/>
<path d="M209.969 100C209.331 100 208.789 99.8086 208.342 99.4257C207.895 98.979 207.672 98.4046 207.672 97.7027V35.3878C207.672 34.6859 207.895 34.1115 208.342 33.6648C208.789 33.2181 209.331 32.9948 209.969 32.9948H218.68C219.382 32.9948 219.924 33.2181 220.307 33.6648C220.754 34.1115 220.977 34.6859 220.977 35.3878V60.084H229.305L244.908 34.7178C245.227 34.2073 245.642 33.7925 246.152 33.4734C246.726 33.1543 247.46 32.9948 248.354 32.9948H257.83C258.468 32.9948 258.947 33.1862 259.266 33.5691C259.649 33.952 259.84 34.4306 259.84 35.0049C259.84 35.324 259.713 35.7069 259.457 36.1536L241.366 65.3487L261.18 96.7455C261.372 96.9369 261.468 97.2879 261.468 97.7984C261.468 98.3727 261.244 98.8832 260.798 99.3299C260.415 99.7766 259.904 100 259.266 100H249.407C248.577 100 247.939 99.8086 247.492 99.4257C247.109 99.0428 246.79 98.6918 246.535 98.3727L229.784 72.0492H220.977V97.7027C220.977 98.3408 220.754 98.8832 220.307 99.3299C219.924 99.7766 219.382 100 218.68 100H209.969Z" fill="#0533FF"/>
<path d="M287.947 100.957C282.841 100.957 278.534 100.064 275.024 98.277C271.578 96.4902 268.93 93.9695 267.079 90.715C265.292 87.4604 264.271 83.6635 264.016 79.3241C263.952 78.1754 263.92 76.7715 263.92 75.1123C263.92 73.4532 263.952 72.0493 264.016 70.9006C264.271 66.4974 265.324 62.7004 267.175 59.5097C269.089 56.2552 271.77 53.7345 275.216 51.9477C278.725 50.1609 282.969 49.2675 287.947 49.2675C292.924 49.2675 297.136 50.1609 300.582 51.9477C304.092 53.7345 306.772 56.2552 308.622 59.5097C310.537 62.7004 311.622 66.4974 311.877 70.9006C311.941 72.0493 311.973 73.4532 311.973 75.1123C311.973 76.7715 311.941 78.1754 311.877 79.3241C311.622 83.6635 310.569 87.4604 308.718 90.715C306.931 93.9695 304.283 96.4902 300.773 98.277C297.327 100.064 293.052 100.957 287.947 100.957ZM287.947 91.4808C291.329 91.4808 293.945 90.4278 295.796 88.3219C297.646 86.1523 298.667 82.9934 298.859 78.8455C298.923 77.8883 298.955 76.6439 298.955 75.1123C298.955 73.5808 298.923 72.3364 298.859 71.3792C298.667 67.2951 297.646 64.1682 295.796 61.9985C293.945 59.8288 291.329 58.7439 287.947 58.7439C284.564 58.7439 281.948 59.8288 280.097 61.9985C278.247 64.1682 277.226 67.2951 277.034 71.3792C276.97 72.3364 276.939 73.5808 276.939 75.1123C276.939 76.6439 276.97 77.8883 277.034 78.8455C277.226 82.9934 278.247 86.1523 280.097 88.3219C281.948 90.4278 284.564 91.4808 287.947 91.4808Z" fill="#0533FF"/>
<path d="M322.77 100C322.132 100 321.621 99.8086 321.238 99.4257C320.855 99.0428 320.664 98.5642 320.664 97.9898V52.0434C320.664 51.5329 320.855 51.1181 321.238 50.799C321.685 50.4161 322.132 50.2247 322.578 50.2247H330.619C331.704 50.2247 332.533 50.7671 333.108 51.852L347.849 78.6541L362.59 51.852C363.164 50.7671 363.994 50.2247 365.079 50.2247H373.024C373.598 50.2247 374.077 50.4161 374.46 50.799C374.842 51.1181 375.034 51.5329 375.034 52.0434V97.9898C375.034 98.5642 374.842 99.0428 374.46 99.4257C374.077 99.8086 373.566 100 372.928 100H364.696C364.058 100 363.547 99.8086 363.164 99.4257C362.845 99.0428 362.686 98.5642 362.686 97.9898L362.822 70.9006L352.444 90.0449C352.125 90.6193 351.742 91.1617 351.295 91.6722C350.848 92.1189 350.21 92.3423 349.38 92.3423H346.222C345.456 92.3423 344.85 92.1189 344.403 91.6722C343.956 91.2255 343.573 90.6831 343.254 90.0449L333.012 70.9006V97.9898C333.012 98.5642 332.821 99.0428 332.438 99.4257C332.055 99.8086 331.576 100 331.002 100H322.77Z" fill="#0533FF"/>
<path d="M388.351 100C387.713 100 387.171 99.7766 386.724 99.3299C386.277 98.8832 386.054 98.3408 386.054 97.7027V52.522C386.054 51.8839 386.277 51.3414 386.724 50.8947C387.171 50.448 387.713 50.2247 388.351 50.2247H429.32C430.022 50.2247 430.565 50.448 430.947 50.8947C431.394 51.3414 431.617 51.8839 431.617 52.522V97.7027C431.617 98.3408 431.394 98.8832 430.947 99.3299C430.565 99.7766 430.022 100 429.32 100H421.375C420.737 100 420.195 99.7766 419.748 99.3299C419.301 98.8832 419.078 98.3408 419.078 97.7027V60.3712H398.593V97.7027C398.593 98.3408 398.37 98.8832 397.923 99.3299C397.54 99.7766 396.998 100 396.296 100H388.351Z" fill="#0533FF"/>
<path d="M457.111 100.957C453.792 100.957 450.793 100.319 448.113 99.0428C445.433 97.7027 443.295 95.9478 441.7 93.7781C440.168 91.5446 439.402 89.0558 439.402 86.3118C439.402 81.8448 441.189 78.3031 444.763 75.6867C448.4 73.0065 453.186 71.2197 459.121 70.3263L472.235 68.4118V66.4017C472.235 63.7215 471.565 61.6475 470.225 60.1798C468.885 58.712 466.587 57.9782 463.333 57.9782C461.035 57.9782 459.153 58.4568 457.685 59.414C456.281 60.3074 455.228 61.5199 454.526 63.0514C454.016 63.881 453.282 64.2958 452.325 64.2958H444.763C444.061 64.2958 443.518 64.1043 443.135 63.7215C442.816 63.3386 442.657 62.8281 442.657 62.1899C442.721 61.1689 443.135 59.9245 443.901 58.4568C444.667 56.989 445.879 55.5851 447.539 54.245C449.198 52.8411 451.336 51.6605 453.952 50.7033C456.568 49.7461 459.727 49.2675 463.428 49.2675C467.449 49.2675 470.831 49.778 473.575 50.799C476.383 51.7562 478.616 53.0644 480.276 54.7236C481.935 56.3828 483.147 58.3291 483.913 60.5626C484.679 62.7962 485.062 65.1573 485.062 67.646V97.7027C485.062 98.3408 484.838 98.8832 484.392 99.3299C483.945 99.7766 483.402 100 482.764 100H475.011C474.309 100 473.735 99.7766 473.288 99.3299C472.905 98.8832 472.713 98.3408 472.713 97.7027V93.9695C471.884 95.182 470.767 96.3307 469.363 97.4155C467.959 98.4365 466.236 99.298 464.194 100C462.216 100.638 459.855 100.957 457.111 100.957ZM460.365 91.8637C462.599 91.8637 464.609 91.385 466.396 90.4278C468.246 89.4706 469.682 88.0029 470.703 86.0246C471.788 83.9826 472.331 81.43 472.331 78.3669V76.3567L462.758 77.8883C458.993 78.4626 456.186 79.3879 454.335 80.6642C452.484 81.9405 451.559 83.504 451.559 85.3546C451.559 86.7585 451.974 87.971 452.803 88.992C453.697 89.9492 454.814 90.6831 456.154 91.1936C457.494 91.6403 458.898 91.8637 460.365 91.8637Z" fill="#0533FF"/>
<path d="M516.965 100.957C512.37 100.957 508.318 100.096 504.808 98.3727C501.362 96.6497 498.65 94.161 496.672 90.9064C494.757 87.5881 493.704 83.5997 493.513 78.9412C493.449 77.984 493.417 76.7396 493.417 75.2081C493.417 73.6127 493.449 72.3045 493.513 71.2835C493.704 66.625 494.757 62.6685 496.672 59.414C498.65 56.0956 501.362 53.575 504.808 51.852C508.318 50.129 512.37 49.2675 516.965 49.2675C521.049 49.2675 524.527 49.8418 527.398 50.9905C530.27 52.1391 532.631 53.575 534.482 55.2979C536.332 57.0209 537.704 58.8397 538.598 60.7541C539.555 62.6047 540.065 64.2958 540.129 65.8273C540.193 66.5293 539.97 67.1036 539.459 67.5503C539.012 67.9332 538.47 68.1247 537.832 68.1247H529.408C528.77 68.1247 528.26 67.9651 527.877 67.646C527.558 67.327 527.239 66.8484 526.92 66.2102C525.962 63.6576 524.686 61.8708 523.091 60.8498C521.559 59.765 519.581 59.2225 517.156 59.2225C513.965 59.2225 511.413 60.2436 509.498 62.2856C507.648 64.2639 506.659 67.4227 506.531 71.7621C506.403 74.187 506.403 76.4205 506.531 78.4626C506.659 82.8658 507.648 86.0565 509.498 88.0348C511.413 90.013 513.965 91.0022 517.156 91.0022C519.645 91.0022 521.655 90.4916 523.187 89.4706C524.718 88.3858 525.962 86.567 526.92 84.0145C527.239 83.3763 527.558 82.8977 527.877 82.5786C528.26 82.2596 528.77 82.1 529.408 82.1H537.832C538.47 82.1 539.012 82.3234 539.459 82.7701C539.97 83.153 540.193 83.6954 540.129 84.3974C540.065 85.546 539.746 86.8542 539.172 88.3219C538.662 89.7259 537.8 91.1936 536.588 92.7252C535.439 94.1929 533.971 95.5649 532.184 96.8412C530.398 98.0537 528.228 99.0428 525.675 99.8086C523.187 100.574 520.283 100.957 516.965 100.957Z" fill="#0533FF"/>
</svg>
